#!OML:ASF H:\Terrain\Patient Classification 1\Walking\steve\steve.ASF
:FULLY-SPECIFIED
:DEGREES
123
root 7.67397 15.9912 -2.84745 4.44774 1.03542 0.978419
lowerback 3.08541 0.919325 1.17258
upperback -2.35993 1.34009 1.38967
thorax -4.16945 0.654123 0.686686
lowerneck -9.99226 -1.69264 -3.18542
upperneck 13.2816 -2.13916 2.39073
head 5.71498 -1.02476 1.10612
rclavicle -7.23079e-015 2.8625e-014
rhumerus -63.3908 -35.9556 -45.44
rradius 16.63
rwrist 36.4642
rhand 173.639 -68.8838
rfingers 7.12502
rthumb -160.515 -39.8401
lclavicle -7.23079e-015 2.8625e-014
lhumerus -21.4175 -8.69128 87.8091
lradius 52.5967
lwrist 24.8787
lhand -28.3875 -16.6553
lfingers 7.12502
lthumb -1.76018 13.3172
rfemur -33.5554 2.37458 24.3187
rtibia 41.8807
rfoot -10.7219 8.25651
rtoes 6.53643
lfemur -5.43968 2.69826 -20.9453
ltibia 59.8032
lfoot 13.5795 7.45766
ltoes -2.64615
124
root 7.66404 16.0294 -2.62173 4.60923 0.890907 0.551314
lowerback 2.94695 1.07345 1.53001
upperback -2.48731 1.56539 1.4516
thorax -4.21689 0.756228 0.537206
lowerneck -9.8521 -1.8158 -3.09513
upperneck 13.4779 -2.30441 2.23356
head 5.75465 -1.11315 1.02957
rclavicle -4.80189e-015 -7.95139e-015
rhumerus -60.5473 -34.9519 -49.1826
rradius 17.1513
rwrist 34.3119
rhand 173.475 -68.7
rfingers 7.12502
rthumb -160.672 -39.6405
lclavicle -4.80189e-015 -7.95139e-015
lhumerus -22.6068 -8.62259 88.3789
lradius 50.8717
lwrist 23.8751
lhand -28.2605 -17.7965
lfingers 7.12502
lthumb -1.63751 12.177
rfemur -32.5248 2.46795 24.8795
rtibia 41.4825
rfoot -11.2806 8.5833
rtoes 7.22726
lfemur -7.69853 3.13976 -20.4061
ltibia 61.9529
lfoot 11.6274 5.5843
ltoes -4.63057
125
root 7.66587 16.0685 -2.392 4.76242 0.613277 -0.0905801
lowerback 2.73763 1.23808 2.18466
upperback -2.5911 1.81641 1.54797
thorax -4.18991 0.862842 0.258146
lowerneck -9.33957 -1.81484 -2.99453
upperneck 13.5026 -2.32837 2.19724
head 5.67377 -1.12566 1.00372
rclavicle 3.59241e-014 1.43125e-014
rhumerus -57.7971 -33.9764 -52.5239
rradius 17.5873
rwrist 33.0416
rhand 173.741 -68.6475
rfingers 7.12502
rthumb -160.417 -39.6138
lclavicle 3.59241e-014 1.43125e-014
lhumerus -23.8835 -8.51736 88.8876
lradius 49.0757
lwrist 22.444
lhand -27.9898 -18.4959
lfingers 7.12502
lthumb -1.37606 11.4794
rfemur -31.4355 2.56896 25.6527
rtibia 41.0313
rfoot -11.6767 9.14501
rtoes 8.48421
lfemur -9.90058 3.82485 -19.6777
ltibia 63.7153
lfoot 9.75988 4.11655
ltoes -7.29654
126
root 7.66437 16.1125 -2.15953 4.76989 0.356051 -0.0169621
lowerback 2.60244 1.38674 2.05662
upperback -2.57365 2.00048 1.45456
thorax -4.09385 0.957698 0.225737
lowerneck -8.64287 -1.73878 -3.12746
upperneck 13.1665 -2.2769 2.59155
head 5.45415 -1.08405 1.15858
rclavicle 1.1045e-014 0
rhumerus -55.0391 -33.2287 -55.6099
rradius 17.9471
rwrist 32.1031
rhand 174.219 -68.9409
rfingers 7.12502
rthumb -159.957 -39.9546
lclavicle 1.1045e-014 0
lhumerus -24.7761 -8.45831 89.243
lradius 47.0667
lwrist 21.0223
lhand -27.5786 -18.231
lfingers 7.12502
lthumb -0.978885 11.7465
rfemur -30.2361 2.58582 25.6423
rtibia 40.5349
rfoot -12.2628 9.49315
rtoes 7.40575
lfemur -11.9366 4.42793 -19.8161
ltibia 65.0068
lfoot 7.43779 4.01848
ltoes -10.7176
127
root 7.65328 16.1677 -1.9327 4.82799 0.372037 0.266408
lowerback 2.42902 1.4228 1.57579
upperback -2.52951 2.02018 1.42164
thorax -3.96413 0.982364 0.464435
lowerneck -8.26971 -1.696 -3.37752
upperneck 12.9719 -2.22705 2.8464
head 5.334 -1.05732 1.28558
rclavicle -2.24813e-014 7.95139e-016
rhumerus -51.9627 -31.552 -59.3459
rradius 18.9012
rwrist 30.2756
rhand 174.857 -69.2698
rfingers 7.12502
rthumb -159.344 -40.349
lclavicle -2.24813e-014 7.95139e-016
lhumerus -25.5468 -8.30741 89.7216
lradius 44.9777
lwrist 20.3381
lhand -27.5928 -18.1352
lfingers 7.12502
lthumb -0.992593 11.8422
rfemur -29.1294 2.45594 25.4028
rtibia 40.0019
rfoot -12.9538 9.47174
rtoes 5.26714
lfemur -13.9186 4.50505 -20.2033
ltibia 65.9057
lfoot 4.95534 4.80667
ltoes -11.4751
128
root 7.64757 16.2173 -1.70803 4.91568 0.283663 -0.308448
lowerback 2.26574 1.4821 2.01514
upperback -2.51935 2.12 1.63273
thorax -3.85399 1.02363 0.435425
lowerneck -8.33833 -1.76066 -3.56274
upperneck 13.1459 -2.29364 2.87196
head 5.40452 -1.09652 1.31872
rclavicle -1.82633e-015 -4.77083e-015
rhumerus -48.8364 -28.6687 -63.7435
rradius 20.4781
rwrist 27.0762
rhand 175.567 -69.493
rfingers 7.12502
rthumb -158.662 -40.6478
lclavicle -1.82633e-015 -4.77083e-015
lhumerus -26.557 -7.88725 90.2191
lradius 43.0656
lwrist 19.6964
lhand -27.8589 -18.3334
lfingers 7.12502
lthumb -1.24959 11.6427
rfemur -27.9752 2.56415 26.0759
rtibia 39.3777
rfoot -13.5122 9.49158
rtoes 3.86265
lfemur -15.8731 4.85385 -19.595
ltibia 66.5752
lfoot 3.37232 4.97368
ltoes -9.82342
129
root 7.65024 16.2474 -1.4824 4.86791 -0.0278723 -0.85822
lowerback 2.36445 1.59413 2.51134
upperback -2.5846 2.30024 1.76052
thorax -3.96366 1.09965 0.27642
lowerneck -8.14866 -1.74017 -3.65086
upperneck 13.2352 -2.28214 3.01673
head 5.40207 -1.08686 1.38074
rclavicle -2.00897e-014 -2.38542e-014
rhumerus -46.335 -25.795 -67.6259
rradius 22.0783
rwrist 23.6763
rhand 176.107 -69.2915
rfingers 7.12502
rthumb -158.143 -40.5059
lclavicle -2.00897e-014 -2.38542e-014
lhumerus -27.8004 -7.29489 90.5866
lradius 41.0452
lwrist 18.6129
lhand -27.8903 -18.23
lfingers 7.12502
lthumb -1.27996 11.746
rfemur -26.5871 2.64532 26.7267
rtibia 38.6453
rfoot -13.9501 9.80807
rtoes 2.97507
lfemur -17.6604 5.43472 -19.0253
ltibia 67.0372
lfoot 1.68413 4.80414
ltoes -8.21608
130
root 7.65532 16.2758 -1.2498 4.87577 -0.276154 -1.25751
lowerback 2.33875 1.65739 2.87958
upperback -2.7131 2.40665 1.84623
thorax -4.07108 1.14112 0.152421
lowerneck -7.82735 -1.68421 -3.77382
upperneck 13.4152 -2.22002 3.13004
head 5.40355 -1.05764 1.44324
rclavicle 6.49777e-015 2.38542e-015
rhumerus -44.4578 -23.424 -70.4005
rradius 23.5985
rwrist 21.2926
rhand 176.789 -68.8872
rfingers 7.12502
rthumb -157.488 -40.1795
lclavicle 6.49777e-015 2.38542e-015
lhumerus -29.0749 -6.61941 90.8563
lradius 38.7469
lwrist 17.4003
lhand -27.6233 -17.9859
lfingers 7.12502
lthumb -1.02211 11.9914
rfemur -25.2681 2.49593 27.1971
rtibia 37.8889
rfoot -14.2143 10.3567
rtoes 2.88069
lfemur -19.4892 5.73095 -18.6604
ltibia 67.2751
lfoot -0.368834 4.71947
ltoes -6.00222
131
root 7.65896 16.3026 -1.01438 4.9961 -0.472943 -1.77844
lowerback 1.9887 1.74297 3.43707
upperback -2.78262 2.53187 1.92452
thorax -3.9242 1.18962 -0.0736029
lowerneck -7.71849 -1.75303 -3.81325
upperneck 13.8168 -2.31273 3.08032
head 5.5133 -1.10926 1.4287
rclavicle 1.21057e-015 -3.18055e-014
rhumerus -42.8442 -21.4818 -72.5065
rradius 25.2169
rwrist 19.5835
rhand 177.373 -68.784
rfingers 7.12502
rthumb -156.928 -40.1452
lclavicle 1.21057e-015 -3.18055e-014
lhumerus -30.2051 -6.0513 91.0679
lradius 36.3261
lwrist 16.3882
lhand -27.8071 -18.5282
lfingers 7.12502
lthumb -1.19958 11.4482
rfemur -24.2214 2.4571 27.7516
rtibia 37.3138
rfoot -14.5083 10.9863
rtoes 4.21784
lfemur -21.3542 5.96785 -18.2442
ltibia 67.3059
lfoot -1.97795 5.0368
ltoes -1.30486
132
root 7.66246 16.316 -0.781957 5.0197 -0.644075 -1.78333
lowerback 1.73547 1.85809 3.51568
upperback -2.75772 2.67018 1.8097
thorax -3.74245 1.2574 -0.232875
lowerneck -7.61488 -1.82703 -3.70373
upperneck 14.0837 -2.43316 3.05624
head 5.58146 -1.16474 1.39546
rclavicle -2.18624e-014 -2.14687e-014
rhumerus -41.3256 -19.8674 -74.4166
rradius 27.0194
rwrist 17.8599
rhand 177.49 -68.6912
rfingers 7.12502
rthumb -156.816 -40.0664
lclavicle -2.18624e-014 -2.14687e-014
lhumerus -31.111 -5.68137 91.1818
lradius 34.0933
lwrist 15.7757
lhand -27.8034 -18.547
lfingers 7.12502
lthumb -1.19607 11.4294
rfemur -23.1642 2.19145 27.775
rtibia 36.9097
rfoot -15.0675 11.7009
rtoes 5.64447
lfemur -22.9682 6.26457 -18.4862
ltibia 67.1046
lfoot -3.40108 5.23421
ltoes -1.33906
133
root 7.6616 16.3187 -0.552846 4.99828 -0.745803 -1.57462
lowerback 1.62486 1.9367 3.27139
upperback -2.69026 2.75475 1.6969
thorax -3.61232 1.30728 -0.21149
lowerneck -7.65567 -1.84807 -3.58646
upperneck 14.2108 -2.45905 2.92568
head 5.62613 -1.17987 1.33304
rclavicle -2.83356e-014 -3.57812e-014
rhumerus -39.7151 -18.6819 -75.9218
rradius 28.7003
rwrist 16.3984
rhand 177.771 -68.7167
rfingers 7.12502
rthumb -156.546 -40.1262
lclavicle -2.83356e-014 -3.57812e-014
lhumerus -31.8334 -5.0827 91.1703
lradius 31.9569
lwrist 14.9441
lhand -26.8792 -17.5975
lfingers 7.12502
lthumb -0.303372 12.3821
rfemur -21.9716 1.84493 27.5795
rtibia 36.5476
rfoot -15.5472 12.275
rtoes 6.64974
lfemur -24.5636 6.49491 -18.9236
ltibia 66.729
lfoot -5.12092 4.69546
ltoes -9.08009
134
root 7.65821 16.3201 -0.327659 5.02142 -0.856799 -1.6457
lowerback 1.57567 1.98067 3.20347
upperback -2.67936 2.80918 1.71962
thorax -3.576 1.33728 -0.150649
lowerneck -7.73848 -1.78715 -3.43162
upperneck 14.4073 -2.36035 2.67526
head 5.69382 -1.14057 1.2355
rclavicle -3.17304e-014 -1.19271e-014
rhumerus -38.152 -17.0782 -77.3693
rradius 30.4138
rwrist 14.5446
rhand 178.158 -68.7255
rfingers 7.12502
rthumb -156.175 -40.1829
lclavicle -3.17304e-014 -1.19271e-014
lhumerus -32.6497 -3.73749 90.9869
lradius 29.5017
lwrist 13.0179
lhand -26.4966 -17.4547
lfingers 7.12502
lthumb 0.0661586 12.525
rfemur -20.8637 1.67049 27.7013
rtibia 36.1902
rfoot -15.7914 12.5888
rtoes 7.06398
lfemur -26.2195 6.58705 -19.0173
ltibia 66.1786
lfoot -7.12498 3.98372
ltoes -15.4358
135
root 7.66705 16.3264 -0.0982306 5.11083 -1.20412 -2.04861
lowerback 1.48924 2.1086 3.65714
upperback -2.73888 2.99359 1.75372
thorax -3.56472 1.41667 -0.373153
lowerneck -7.83378 -1.75198 -3.42622
upperneck 14.8026 -2.3187 2.68593
head 5.83272 -1.11848 1.24054
rclavicle 4.37326e-015 1.31198e-014
rhumerus -37.0963 -14.6104 -79.055
rradius 32.8573
rwrist 11.5539
rhand 177.796 -68.3053
rfingers 7.12502
rthumb -156.523 -39.7178
lclavicle 4.37326e-015 1.31198e-014
lhumerus -33.7047 -2.28672 90.7205
lradius 27.0173
lwrist 10.8259
lhand -26.8675 -17.8585
lfingers 7.12502
lthumb -0.292133 12.121
rfemur -19.9048 1.44129 28.1942
rtibia 35.7796
rfoot -15.98 13.1749
rtoes 6.78182
lfemur -27.799 6.78261 -18.8135
ltibia 65.3896
lfoot -8.2095 3.68744
ltoes -15.4887
